<svg viewBox="0 0 128 128" xmlns="http://www.w3.org/2000/svg"><path fill="#2496ED" d="M64 8C35.8 8 12 31.8 12 60v8c0 28.2 23.8 52 52 52s52-23.8 52-52v-8c0-28.2-23.8-52-52-52z"/><g fill="white"><rect x="30" y="40" width="10" height="10"/><rect x="42" y="40" width="10" height="10"/><rect x="54" y="40" width="10" height="10"/><rect x="30" y="52" width="10" height="10"/><rect x="42" y="52" width="10" height="10"/><rect x="54" y="52" width="10" height="10"/><rect x="66" y="40" width="10" height="10"/><rect x="66" y="52" width="10" height="10"/><rect x="78" y="40" width="10" height="10"/><rect x="78" y="52" width="10" height="10"/></g></svg>
